<?xml version="1.0" encoding="utf-8"?>
<!-- Generator: Adobe Illustrator 24.0.2, SVG Export Plug-In . SVG Version: 6.00 Build 0)  -->
<svg version="1.1" id="Capa_1" xmlns="http://www.w3.org/2000/svg" xmlns:xlink="http://www.w3.org/1999/xlink" x="0px" y="0px"
	 viewBox="0 0 3710 3710" style="enable-background:new 0 0 3710 3710;" xml:space="preserve">
<style type="text/css">
	.st0{fill:#EBF2F7;}
	.st1{clip-path:url(#SVGID_2_);}
	.st2{fill:url(#SVGID_3_);}
	.st3{opacity:0.5;}
	.st4{fill:#BEB8F2;}
	.st5{fill:url(#SVGID_4_);}
	.st6{clip-path:url(#SVGID_6_);}
	.st7{fill:#FCFDFE;}
	.st8{fill:url(#SVGID_7_);}
	.st9{clip-path:url(#SVGID_9_);}
	.st10{fill:url(#SVGID_10_);}
	.st11{fill:url(#SVGID_11_);}
	.st12{fill:url(#SVGID_12_);}
	.st13{fill:url(#SVGID_13_);}
	.st14{opacity:0.9;fill:#FFFFFF;enable-background:new    ;}
	.st15{fill:url(#SVGID_14_);}
	.st16{fill:#FFFFFF;}
	.st17{opacity:0.2;}
	.st18{fill:url(#SVGID_15_);}
	.st19{fill:url(#SVGID_16_);}
	.st20{clip-path:url(#SVGID_18_);}
	.st21{opacity:0.5;fill:#FFFFFF;enable-background:new    ;}
	.st22{fill:url(#SVGID_19_);}
	.st23{clip-path:url(#SVGID_21_);}
	.st24{opacity:0.3;fill:#FFFFFF;enable-background:new    ;}
	.st25{fill:url(#SVGID_22_);}
	.st26{clip-path:url(#SVGID_24_);}
	.st27{fill:url(#SVGID_25_);}
	.st28{clip-path:url(#SVGID_27_);}
	.st29{opacity:0.74;fill:#FFFFFF;enable-background:new    ;}
	.st30{fill:url(#SVGID_28_);}
	.st31{fill:url(#SVGID_29_);}
	.st32{fill:url(#SVGID_30_);}
	.st33{opacity:0.3;fill:url(#SVGID_31_);enable-background:new    ;}
	.st34{fill:url(#SVGID_32_);}
	.st35{fill:url(#SVGID_33_);}
	.st36{fill:url(#SVGID_34_);}
	.st37{fill:url(#SVGID_35_);}
	.st38{opacity:0.3;fill:url(#SVGID_36_);enable-background:new    ;}
	.st39{fill:url(#SVGID_37_);}
	.st40{fill:url(#SVGID_38_);}
	.st41{fill:url(#SVGID_39_);}
	.st42{fill:url(#SVGID_40_);}
	.st43{fill:url(#SVGID_41_);}
	.st44{fill:url(#SVGID_42_);}
	.st45{fill:url(#SVGID_43_);}
	.st46{opacity:0.3;fill:url(#SVGID_44_);enable-background:new    ;}
</style>
<title>failedModal</title>
<path class="st0" d="M1940.4,359.9c-786.1-23.9-1467,562.7-1569.9,1332.3c-112.5,841.5,506.6,1598.6,1268.3,1719.9
	c947.5,150.8,1866.4-721.8,1783.9-1668.4C3360.6,1030.5,2739.5,384.2,1940.4,359.9z"/>
<g>
	<g>
		<defs>
			<path id="SVGID_1_" d="M959.4,1089.2c85.4-166.9,212.2-365.2,324.5-165.8s422.4,9.7,521.4-279.8
				c96.9-283.2,656.3-274.4,502.9,357.9c-91.6,377.6-469.9,394.5-658.9,448.4s-149.5,342.9-403.3,290.5
				c-216.8-44.7-393.8-175.2-508.2-27.3S902.8,1199.9,959.4,1089.2z"/>
		</defs>
		<clipPath id="SVGID_2_">
			<use xlink:href="#SVGID_1_"  style="overflow:visible;"/>
		</clipPath>
		<g class="st1">
			
				<linearGradient id="SVGID_3_" gradientUnits="userSpaceOnUse" x1="8090.6479" y1="-648.9981" x2="7344.9473" y2="-2768.3481" gradientTransform="matrix(-0.19 -0.98 0.98 -0.19 4445.75 8516.2197)">
				<stop  offset="0" style="stop-color:#E38DDD"/>
				<stop  offset="1" style="stop-color:#9571F6"/>
			</linearGradient>
			<path class="st2" d="M1805.3,643.6c-99,289.5-375.7,480.6-521.4,304.2c-128.8-155.9-239.1-25.5-324.5,141.4
				c-50.6,98.9-130.7,331.5-366.3,286.3c0.2,4-0.2,8.1-1.3,12c-6.4,150.6-18.2,300.8-26,451.3c66.1-17.8,122.5-61.9,171.9-125.7
				c114.4-147.9,291.5-17.4,508.2,27.3c253.8,52.4,214.3-236.6,403.3-290.5s567.3-70.8,658.9-448.4
				C2461.7,369.2,1902.3,360.4,1805.3,643.6z"/>
			<g class="st3">
				<path class="st4" d="M2140.3,378.5c-0.8,618.1-532.6,916.1-978.6,1057.2c-204.3,64.6-409.7,103.2-579.2,126.1l-0.5,8
					c170.2-23,376.6-61.6,581.9-126.6c285.2-90.2,512.6-212.8,675.8-364.3c204.3-189.6,308.1-425.3,308.4-700.5L2140.3,378.5z"/>
				<path class="st4" d="M1751,1154.6l-0.5-7.9C2013,1129,2358.4,960.7,2361.8,959l3.5,7.1C2361.8,967.8,2015.1,1136.8,1751,1154.6z
					"/>
				<path class="st4" d="M1883.6,1024.5c112.2-292.9-13.2-521.9-14.5-524.2l6.9-3.9c1.3,2.3,128.6,234.4,15,530.9L1883.6,1024.5z"/>
				<path class="st4" d="M839.8,1518.6c349.2-157.7,342.6-672.9,342.1-677.9l7.8-1.3c0.9,4.9,5.7,527.3-346.7,686.4L839.8,1518.6z"
					/>
				<path class="st4" d="M995.3,1491l0.1-7.9c244.5,3.4,455.6,227,457.7,229.3l-5.8,5.4C1445.3,1715.5,1236.4,1494.3,995.3,1491z"/>
				<path class="st4" d="M698.7,1774.1c-23.6-21.8-69.3-63.9-123-102.9c-0.2,3.1-0.4,6.2-0.6,9.3c51.5,37.9,95.4,78.3,118.3,99.4
					c10.1,9.3,14.3,13.2,16.2,14.3l4-6.8C712.3,1786.6,706,1780.8,698.7,1774.1z"/>
			</g>
		</g>
	</g>
	<g>
		
			<linearGradient id="SVGID_4_" gradientUnits="userSpaceOnUse" x1="-2030.7603" y1="-1277.4032" x2="-1245.2202" y2="-3341.4832" gradientTransform="matrix(-0.293 0.9561 0.9561 0.293 3940.9697 3825.3611)">
			<stop  offset="0" style="stop-color:#FFC444"/>
			<stop  offset="1" style="stop-color:#F36F56"/>
		</linearGradient>
		<path class="st5" d="M1726.5,1345.4c-57-62.7-139-56.9-197.7-43.4c-2.8,7.6-6.4,11.3-11,18.3c-41.1,63.6-45,99.5-75.6,168.6
			c-6.6,14.9-12.6,64.4-13.8,84.8l-1.6,38c0,0,147.9,127.2,229.1,51.5s237,27.3,326.3,71.7c54.8,27.3,88.6,22.2,110.4,28.9
			c230.2,71.8,271.3,164.8,360.5,142.2c98.5-25,76.6-145.6,182.3-178.4c119.3-37.1,227.3,91.8,332.4,31.4
			c18-10.3,36.3-21.5,52.9-43.6c41.2-54.6,24.2-118,91.3-142.8c134.8-49.7,224.6-181.5,151.4-310.2
			c-72.2-127-316.5-104.1-576.8,90.1c-200.9,117-243.3,103.3-339.2,49.9c-67.2-37.4-224.6-183.5-336-108.4
			S1791.7,1417.1,1726.5,1345.4z"/>
		<g>
			<defs>
				<path id="SVGID_5_" d="M1455.3,1324.7l-32.4,278.9c0,0,152,135.3,233.2,59.6s237,27.3,326.3,71.7
					c242.2,120.4,326.3-181.9,649.7-54.2c86,33.9,238.7,129.9,335.8,78.3c110.7-58.8,58-154.5,144.2-186.3
					c134.8-49.7,224.6-181.5,151.4-310.2c-72.2-127-316.5-104.1-576.8,90.1c-200.9,117-243.3,103.3-339.2,49.9
					c-67.2-37.4-224.6-183.4-336-108.4s-219.8,123.1-285,51.4C1627.4,1236.3,1455.3,1324.7,1455.3,1324.7z"/>
			</defs>
			<clipPath id="SVGID_6_">
				<use xlink:href="#SVGID_5_"  style="overflow:visible;"/>
			</clipPath>
			<g class="st6">
				<g class="st3">
					<path class="st7" d="M1453.2,1450.9l-1.3,5.4c29.8,7.4,60,14.5,89.7,21c219.8,48.4,436.4,72.9,643.8,72.8
						c175.7-0.1,347.3-17.9,510-52.8c130.8-28.1,256.6-67.3,373.9-116.6c82.4-34.7,159.9-74,230.1-116.8
						c12.2-7.4,24.4-15.8,36.1-23.9c15.6-10.8,31.8-21.9,48.4-31l-2.3-4.9c-16.8,9.2-33.1,20.4-48.8,31.2
						c-11.7,8-23.8,16.3-35.9,23.7c-70,42.6-147.2,81.8-229.4,116.4c-117,49.2-242.5,88.4-373,116.3
						c-162.4,34.8-333.6,52.5-509,52.6c-207,0.1-423.3-24.3-642.7-72.6C1513.1,1465.4,1483,1458.3,1453.2,1450.9z"/>
					<path class="st7" d="M2495.1,1525.6l0.3,5.5c221.5-21.2,536.1,199,539.3,201.2l2.9-4.7
						C3034.5,1725.4,2718.4,1504.2,2495.1,1525.6z"/>
					<path class="st7" d="M1872.2,1526.6l-0.3,5.6c151.6,4.5,354.1-226.8,356.2-229.1l-3.7-3.7
						C2222.4,1301.6,2021.5,1531,1872.2,1526.6z"/>
					<path class="st7" d="M1786.6,1516.1l-1.2,5.4c96.4,21.7,215.8,107,336.1,240.2c6.1,6.7,6.1,6.7,7,6.9l1.3-5.4l-0.6,2.7l1.5-2.3
						c-0.4-0.4-2.7-2.9-5.4-5.8C2004.3,1623.9,1884,1538,1786.6,1516.1z"/>
					<path class="st7" d="M1507.8,1463.6l0.3,5.5c109-10,203.1-154.2,204-155.7l-4.2-3.1C1707,1311.8,1614.3,1453.9,1507.8,1463.6z"
						/>
					<path class="st7" d="M1449.9,1458.7c72.7,51.3,133.4,127,185.8,231.7l4.6-2.7c-52.8-105.4-114.1-181.8-187.4-233.6
						L1449.9,1458.7z"/>
					<path class="st7" d="M2998,1403.4l0.6,5.5c122.7-19.2,255-8.8,298.4-5.4c10.5,0.8,14.2,1.1,15.5,1l-0.4-5.5
						c-1,0.1-7-0.4-14.6-1C3254,1394.5,3121.3,1384.2,2998,1403.4z"/>
					<path class="st7" d="M2802,1466.1l2.1,5c106-53.4,188.8-288.3,192.2-298.3l-4.8-1.8C2990.6,1173.4,2906,1413.7,2802,1466.1z"/>
				</g>
			</g>
		</g>
	</g>
	<g>
		
			<linearGradient id="SVGID_7_" gradientUnits="userSpaceOnUse" x1="3034.0015" y1="-993.7402" x2="4091.5212" y2="-2734.7002" gradientTransform="matrix(-0.19 0.98 0.98 0.19 4548.6201 -1826.9601)">
			<stop  offset="0" style="stop-color:#FF9085"/>
			<stop  offset="1" style="stop-color:#FB6FBB"/>
		</linearGradient>
		<path class="st8" d="M3138,702.1c-90.8-317.4-578.3-149.7-773,172.1c-56.4,93.4-103.2,140.7-145,159.8
			c-126.5,48.4-214.1,108.1-270.7,153.7c-164.2,132.2-194.5,247.5-348.5,332.6c-97.3,53.7-193.2,67.4-258,70.7
			c1.6,14.7,1.2,29.4-1.1,44l-13,81.4c56,35,115.3,57.7,154.5-19.5c60.9-119.9,272.8-78.6,340.8-27.9
			c84.1,62.7,282.8,204.5,379.6,20.6c80.6-153.1,103.3-269,303.7-238.8s346.6-58.5,372.1-251.7
			C2906.1,995.8,3190.1,884.3,3138,702.1z"/>
		<g>
			<defs>
				<path id="SVGID_8_" d="M1283.9,1691.5c53.7,37.3,155.3,91.6,199.1,5.4c60.9-119.9,272.8-78.6,340.8-27.9
					c84.1,62.7,282.8,204.5,379.6,20.7c80.6-153.1,103.3-269,303.7-238.8s346.5-58.5,372-251.7c26.8-203.3,310.8-314.9,258.7-497
					c-90.7-317.4-578.2-149.7-772.9,172.1S1283.9,1691.5,1283.9,1691.5z"/>
			</defs>
			<clipPath id="SVGID_9_">
				<use xlink:href="#SVGID_8_"  style="overflow:visible;"/>
			</clipPath>
			<g class="st9">
				<g class="st3">
					<path class="st7" d="M2311.2,1248.8c-154.9,76.7-318,135.3-485,173.2c-11.2,5.9-22.5,11.6-33.9,17.2
						c185.3-38.7,366.2-102.6,537-188.7C2323.3,1249.8,2317.2,1249.3,2311.2,1248.8z"/>
					<path class="st7" d="M3119,570.2c-185.6,255.6-427.1,467-698.8,620.8c1.9,1.9,3.8,3.7,5.6,5.6l1.3,1.3
						c271.8-154.3,513.3-366,699.1-621.9L3119,570.2z"/>
					<path class="st7" d="M1783,1443.8c-4.5,2.2-9,4.3-13.6,6.5c247.8,60.4,397.1,324.3,398.6,327l7.9-5
						C2174.3,1769.6,2027.7,1510.3,1783,1443.8z"/>
					<path class="st7" d="M1897.2,911.9c3.2-11.2,4.9-17.7,5-18.2l-8.8-2.4c-0.1,0.6-2,7.7-5.5,19.8
						C1891,911.3,1894.1,911.6,1897.2,911.9z"/>
					<path class="st7" d="M2436.5,1207.8c2.6,2.8,5.4,6,8.4,9.4c192.9-2.6,407,151.3,409.4,153l5.2-8
						C2857,1360.5,2634.6,1200.7,2436.5,1207.8z"/>
					<path class="st7" d="M2736.8,975.3l6.7,6.5c164.1-187.3,159.3-530.8,159.3-534.3l-9.1,0.3
						C2893.6,451.3,2898.3,791,2736.8,975.3z"/>
				</g>
			</g>
		</g>
	</g>
</g>
<g>
	
		<linearGradient id="SVGID_10_" gradientUnits="userSpaceOnUse" x1="958.1366" y1="3141.3721" x2="1517.5964" y2="2187.0022" gradientTransform="matrix(1 0 0 -1 0 3710)">
		<stop  offset="0" style="stop-color:#444B8C"/>
		<stop  offset="1" style="stop-color:#26264F"/>
	</linearGradient>
	<path class="st10" d="M2958.7,2795.8l-2268,204.7c-33.9,2.8-82.4-42-82.4-76V1207.4c0-31.8,25.5-57.7,57.3-58.1l2287.6-31.6
		c32.4-0.4,93.7,23.4,93.7,55.9l-34.7,1564.3C3012.1,2768.2,2988.9,2793.4,2958.7,2795.8z"/>
	
		<linearGradient id="SVGID_11_" gradientUnits="userSpaceOnUse" x1="1594.9261" y1="2455.6521" x2="2773.0762" y2="-1203.8378" gradientTransform="matrix(1 0 0 -1 0 3710)">
		<stop  offset="0" style="stop-color:#444B8C"/>
		<stop  offset="1" style="stop-color:#26264F"/>
	</linearGradient>
	<path class="st11" d="M3004.8,2811.7L717.2,2998.4c-32,2.6-60.1-21.2-62.7-53.2c-0.1-1.6-0.2-3.1-0.2-4.7V1223.3
		c0-31.8,25.5-57.7,57.3-58.1l2287.6-31.6c32.1-0.4,58.5,25.2,58.9,57.3c0,0.3,0,0.5,0,0.8v1562.1
		C3058.2,2784,3034.9,2809.3,3004.8,2811.7z"/>
	
		<linearGradient id="SVGID_12_" gradientUnits="userSpaceOnUse" x1="855.09" y1="1658.7748" x2="2911.78" y2="1658.7748" gradientTransform="matrix(1 0 0 -1 0 3710)">
		<stop  offset="0.49" style="stop-color:#EBEFF2"/>
		<stop  offset="1" style="stop-color:#FFFFFF"/>
	</linearGradient>
	<path class="st12" d="M919.3,2928.7L2857,2774.4c30.9-2.5,54.8-28.3,54.8-59.3V1233.1c0-32.9-26.6-59.5-59.5-59.5
		c-0.3,0-0.6,0-0.9,0l-1937.7,29.8c-32.5,0.5-58.6,27-58.6,59.5v1606.6c0,32.9,26.6,59.5,59.5,59.5
		C916.2,2928.9,917.8,2928.8,919.3,2928.7z"/>
	
		<linearGradient id="SVGID_13_" gradientUnits="userSpaceOnUse" x1="3158.1575" y1="2090.1912" x2="2927.4075" y2="1660.1511" gradientTransform="matrix(1 0 0 -1 0 3710)">
		<stop  offset="0" style="stop-color:#444B8C"/>
		<stop  offset="1" style="stop-color:#26264F"/>
	</linearGradient>
	<path class="st13" d="M2992.7,2023.6L2992.7,2023.6c-11.2,0-20.3-9.1-20.3-20.3l0,0v-150.2c0-11.2,9.1-20.3,20.3-20.3c0,0,0,0,0,0
		l0,0c11.2,0,20.3,9.1,20.3,20.3l0,0v150.2C3012.9,2014.5,3003.9,2023.6,2992.7,2023.6z"/>
	<path class="st14" d="M2569.7,2444.2c-176.5-153.9-317.9-93.7-504.6-250.1C1833.3,2000,1948.7,1821,1744.7,1650
		c-255.1-213.8-563.3-40.4-754.7-254.5c-50.1-56-78-122.8-92.6-189.7c-25.1,7.6-42.3,30.7-42.3,56.9v1606.6
		c0,32.9,26.6,59.5,59.5,59.5c1.6,0,3.1-0.1,4.7-0.2L2774.8,2781C2740.8,2665.8,2680.4,2540.8,2569.7,2444.2z"/>
</g>
<linearGradient id="SVGID_14_" gradientUnits="userSpaceOnUse" x1="1320.7198" y1="1539.3619" x2="2121.5574" y2="1539.3619" gradientTransform="matrix(0.9958 9.202302e-02 9.202302e-02 -0.9958 60.8225 3355.167)">
	<stop  offset="0" style="stop-color:#FF9085"/>
	<stop  offset="1" style="stop-color:#FB6FBB"/>
</linearGradient>
<path class="st15" d="M2317.4,1992.2c-20.4,220.5-215.7,394.6-436.9,389c-221.9-5.7-385.8-190.1-365.3-411.9s217.5-396,439.3-388.9
	C2175.7,1587.3,2337.8,1771.7,2317.4,1992.2z"/>
<path class="st16" d="M1921.5,2234.1c-139.7,0-253.4-113.7-253.4-253.4s113.7-253.4,253.4-253.4s253.4,113.7,253.4,253.4
	S2061.3,2234.1,1921.5,2234.1z M1921.5,1820.5c-88.3,0-160.2,71.9-160.2,160.2s71.8,160.2,160.2,160.2s160.2-71.9,160.2-160.2
	S2009.9,1820.5,1921.5,1820.5L1921.5,1820.5z"/>
<path class="st16" d="M1804.3,2155.8c-25.7,0-46.6-20.9-46.5-46.7c0-12.3,4.9-24.1,13.5-32.8l253-254.5
	c18.1-18.3,47.7-18.3,65.9-0.2c18.3,18.1,18.3,47.7,0.2,65.9l-253,254.5C1828.7,2150.9,1816.7,2155.8,1804.3,2155.8z"/>
<g class="st17">
	
		<linearGradient id="SVGID_15_" gradientUnits="userSpaceOnUse" x1="1320.72" y1="1535.1038" x2="1928.5836" y2="1535.1038" gradientTransform="matrix(0.9958 9.202302e-02 9.202302e-02 -0.9958 60.8225 3355.167)">
		<stop  offset="0" style="stop-color:#FF9085"/>
		<stop  offset="1" style="stop-color:#FB6FBB"/>
	</linearGradient>
	<path class="st18" d="M1883.2,2275c-29.1-51.4,29.7-93.7,32.1-196.3c3.6-155.7-128.4-212.2-110.7-343.5
		c4.9-36.5,23.1-91.2,91.2-152.5c-196.9,22.1-361.9,184.5-380.6,386.6c-20.5,221.8,143.3,406.3,365.3,411.9
		c75.7,1.9,148.3-17.2,211.9-52C2009.6,2334.8,1914,2329.4,1883.2,2275z"/>
</g>
<g>
	<g>
		
			<linearGradient id="SVGID_16_" gradientUnits="userSpaceOnUse" x1="2919.0083" y1="1427.6802" x2="2901.6482" y2="738.3902" gradientTransform="matrix(1 0 0 -1 0 3710)">
			<stop  offset="0" style="stop-color:#E38DDD"/>
			<stop  offset="1" style="stop-color:#9571F6"/>
		</linearGradient>
		<path class="st19" d="M2736.9,2922.6c-20.2,4.1-69.9-62.2-55.9-116.9c15.3-60.1,93.9-52.6,118.6-118.1
			c20.2-53.5-24.3-77.4-9.9-150.5c9.8-49.6,43.9-100.9,90.8-127.1c61.3-34.2,102.3-2,142.1-37.9c46.9-42.2,23.7-117.1,41.8-120.5
			c26.3-5,112.5,145.9,63,218.6c-41.6,61.1-143,13.9-194.2,82c-43.1,57.3,12.6,111.9-35.3,179.5c-39.4,55.6-98.6,41.4-133.3,106.3
			C2740.9,2882.3,2751.5,2919.7,2736.9,2922.6z"/>
		<g>
			<defs>
				<path id="SVGID_17_" d="M2736.9,2922.6c-20.2,4.1-69.9-62.2-55.9-116.9c15.3-60.1,93.9-52.6,118.6-118.1
					c20.2-53.5-24.3-77.4-9.9-150.5c9.8-49.6,43.9-100.9,90.8-127.1c61.3-34.2,102.3-2,142.1-37.9c46.9-42.2,23.7-117.1,41.8-120.5
					c26.3-5,112.5,145.9,63,218.6c-41.6,61.1-143,13.9-194.2,82c-43.1,57.3,12.6,111.9-35.3,179.5c-39.4,55.6-98.6,41.4-133.3,106.3
					C2740.9,2882.3,2751.5,2919.7,2736.9,2922.6z"/>
			</defs>
			<clipPath id="SVGID_18_">
				<use xlink:href="#SVGID_17_"  style="overflow:visible;"/>
			</clipPath>
			<g class="st20">
				<path class="st21" d="M2746.3,2842.9l-1.2-1.3c58.9-55.3,95.7-116.4,109.3-181.8c7.6-36.8,6.6-67.1,5.6-94
					c-1.2-35-2.2-62.6,19.7-83c21.6-20.1,49.5-19.2,79-18.1c32.2,1.1,65.6,2.3,93.8-24.1c28-26.2,33.7-64,36.1-80.1
					c9.2-61.3-19-110.1-31.6-128.3l1.4-1c12.7,18.3,41.1,67.6,31.9,129.5c-2.4,16.3-8.2,54.6-36.6,81.1
					c-28.7,26.8-62.4,25.7-95,24.6c-29.1-1-56.7-2-77.8,17.7c-21.3,19.9-20.4,45.8-19.1,81.7c0.9,26.9,2,57.4-5.7,94.4
					C2842.5,2725.9,2805.6,2787.4,2746.3,2842.9z"/>
				<path class="st21" d="M3051.5,2457c-4.7-1.5-8.6-3.9-10.9-7.6c-5.3-8.1-0.3-18,5.4-29.4c6.1-12.1,12.9-25.8,11.3-42.4
					c-2.2-22.9-20.1-44.9-53.3-65.6l0.9-1.5c33.7,21,51.9,43.5,54.1,66.9c1.6,17.1-5.7,31.6-11.5,43.3c-5.7,11.4-10.2,20.3-5.5,27.6
					c9.1,14.2,43.3,8.2,59.6,5.3c37.9-6.6,73.7-23.6,106.3-50.3l1.1,1.4c-32.9,26.9-68.9,43.9-107.1,50.6
					C3089.3,2457.7,3066.2,2461.7,3051.5,2457z"/>
				<path class="st21" d="M2860.2,2551.4l-0.4-0.5c-9.6-11.8-15.2-24.3-16.4-37c-2.5-26,13.3-47.7,27.3-66.8
					c12.9-17.7,24-33,18.7-47.8c-3-8.4-11-15.2-23.7-20.3l0.6-1.6c13.2,5.3,21.5,12.5,24.7,21.3c5.6,15.7-5.8,31.3-18.9,49.4
					c-13.8,18.9-29.4,40.3-26.9,65.6c1.2,12.3,6.4,24.2,15.6,35.6c16.4-6.5,33.8-10,51.4-10.2c54.3-0.6,93.7,31.3,108.2,45l-1.2,1.3
					c-14.3-13.6-53.3-45-106.9-44.5c-17.6,0.2-35.1,3.7-51.4,10.4L2860.2,2551.4z"/>
				<path class="st21" d="M2835.4,2723.2l-0.3-0.3c-1.5-1.5-148.9-147.8-155.6-152.4l1-1.4c6.7,4.6,146.1,143,155.5,152.3
					l228.3-28.3l0.2,1.7L2835.4,2723.2z"/>
			</g>
		</g>
	</g>
	<g>
		
			<linearGradient id="SVGID_19_" gradientUnits="userSpaceOnUse" x1="2604.7207" y1="828.6688" x2="2667.7607" y2="876.7889" gradientTransform="matrix(1 0 0 -1 0 3710)">
			<stop  offset="0" style="stop-color:#AA80F9"/>
			<stop  offset="1" style="stop-color:#6165D7"/>
		</linearGradient>
		<path class="st22" d="M2737.4,2969.8c-17.7-6.3-34.4-15.1-49.6-26.2c-20-14.6-39.1-28.5-46.4-51.9c-8.4-27,8.4-35.5-0.1-60.2
			c-9.6-28.1-35.1-25.3-45-54.5c-6.7-19.8-1-38.7,4.1-55.3c6.1-20,20.1-48.6,29.2-46.8c10.8,2.2-3.7,43.6,20.9,72.1
			c18.6,21.6,40.2,13.3,58.6,38.5c2.5,3.4,16.4,22.4,13.4,45.2c-3.7,27.9-25.9,35.3-31.2,58.4
			C2687.5,2905.5,2693.7,2930.9,2737.4,2969.8z"/>
		<g>
			<defs>
				<path id="SVGID_20_" d="M2737.4,2969.8c-17.7-6.3-34.4-15.1-49.6-26.2c-20-14.6-39.1-28.5-46.4-51.9c-8.4-27,8.4-35.5-0.1-60.2
					c-9.6-28.1-35.1-25.3-45-54.5c-6.7-19.8-1-38.7,4.1-55.3c6.1-20,20.1-48.6,29.2-46.8c10.8,2.2-3.7,43.6,20.9,72.1
					c18.6,21.6,40.2,13.3,58.6,38.5c2.5,3.4,16.4,22.4,13.4,45.2c-3.7,27.9-25.9,35.3-31.2,58.4
					C2687.5,2905.5,2693.7,2930.9,2737.4,2969.8z"/>
			</defs>
			<clipPath id="SVGID_21_">
				<use xlink:href="#SVGID_20_"  style="overflow:visible;"/>
			</clipPath>
			<g class="st23">
				<path class="st24" d="M2743.6,2979.6c-4-3.8-9.3-8.3-14.9-13.1c-24.6-21-58.2-49.7-54.5-76.9c1.9-14.3,4.4-25.5,6.4-34.4
					c3.8-17.3,6.1-27.7,0.8-41.3c-6.3-16.1-17.8-22.9-29.9-30.1c-10.9-6.5-22.2-13.2-29.8-27.1c-12.3-22.6-8.8-54.4,10.3-94.4
					l1.6,0.8c-18.9,39.5-22.4,70.7-10.4,92.8c7.3,13.5,18.4,20.1,29.1,26.5c11.9,7,24.1,14.3,30.6,30.9c5.5,14,3.2,24.7-0.7,42.3
					c-2,8.9-4.4,20-6.3,34.3c-3.6,26.3,29.7,54.6,53.9,75.4c5.6,4.8,10.9,9.3,14.9,13.1L2743.6,2979.6z"/>
				<path class="st24" d="M2632.3,2781.3c-8.6-2.7-16.5-7.2-23.2-13.2c-27.3-24.5-21.1-62.4-20.8-64.1l1.7,0.3
					c-0.3,1.6-6.4,38.6,20.2,62.5c13.8,12.3,29.7,15.4,39.3,16c-4.2-4.4-14-16.7-11.9-33.5c1.7-14,10.6-22.9,14.4-26l1.1,1.3
					c-3.6,3-12.1,11.4-13.7,24.9c-2.3,19.2,11.4,32.3,13,33.7l1.8,1.6l-2.4-0.1C2645.2,2784.4,2638.6,2783.3,2632.3,2781.3z"/>
				<path class="st24" d="M2682.5,2848.7l-0.3-1.1c-2.6-8.9-8.3-21.6-20.6-31.3c-27.9-21.9-64.1-7.8-65.6-7.1l-0.6-1.6
					c1.6-0.6,38.6-15.1,67.3,7.4c10,8,17.3,18.9,20.9,31.2c5.7-3.4,20.2-13.8,24.9-33.2c6.5-26.9-11.4-47-13.4-49.1l1.3-1.2
					c2.1,2.3,20.5,23,13.8,50.7c-5.1,21.2-21.7,32-26.6,34.8L2682.5,2848.7z"/>
				<path class="st24" d="M2674.6,2902.3l-0.5-1.3c-8.7-24-28.5-42.3-53.1-49.1l0.5-1.7c24.7,6.8,44.7,25,53.8,48.9l51.8-53.1
					l1.2,1.2L2674.6,2902.3z"/>
			</g>
		</g>
	</g>
	<g>
		
			<linearGradient id="SVGID_22_" gradientUnits="userSpaceOnUse" x1="2660.5769" y1="1421.0966" x2="2833.7869" y2="610.9264" gradientTransform="matrix(1 0 0 -1 0 3710)">
			<stop  offset="0" style="stop-color:#AA80F9"/>
			<stop  offset="1" style="stop-color:#6165D7"/>
		</linearGradient>
		<path class="st25" d="M2704.7,2295.2c-12.9,6,9.5,40.7-0.2,97.5c-15.3,90.4-90.4,112.8-84,183.2c3.5,37.9,20,64.1,20,64.1
			c5.4,8.6,9.5,12.6,28.3,38.1c1.8,2.4,18.6,25.2,22.7,31.5c27.9,42.8-28.9,105.5-11.6,166.7c11.9,42.3,43.2,71.1,68.9,89.2
			c-48.1-75.6-47.6-124.2-37-155.1c14.7-42.9,48.1-49.9,65.9-103.9c12.4-37.7,0.8-48.5,1.1-117.8c0.5-107.2,28.4-118.8,14.2-177.6
			C2776.3,2341.9,2720.9,2287.6,2704.7,2295.2z"/>
		<g>
			<defs>
				<path id="SVGID_23_" d="M2704.7,2295.2c-12.9,6,9.5,40.7-0.2,97.5c-15.3,90.4-90.4,112.8-84,183.2c3.5,37.9,20,64.1,20,64.1
					c5.4,8.6,9.5,12.6,28.3,38.1c1.8,2.4,18.6,25.2,22.7,31.5c27.9,42.8-28.9,105.5-11.6,166.7c11.9,42.3,43.2,71.1,68.9,89.2
					c-48.1-75.6-47.6-124.2-37-155.1c14.7-42.9,48.1-49.9,65.9-103.9c12.4-37.7,0.8-48.5,1.1-117.8c0.5-107.2,28.4-118.8,14.2-177.6
					C2776.3,2341.9,2720.9,2287.6,2704.7,2295.2z"/>
			</defs>
			<clipPath id="SVGID_24_">
				<use xlink:href="#SVGID_23_"  style="overflow:visible;"/>
			</clipPath>
			<g class="st26">
				<path class="st21" d="M2699.4,2906.9c-9.9-34.8-11-68.3-3.3-99.4c5.9-24,14.8-37.9,23.4-51.3c8.3-13,16.2-25.3,20-45.6
					c5.4-28.8-2.5-45.5-11.8-64.8c-7.9-16.4-16.8-34.9-18.2-64.2c-1.9-39.9,11.6-64.8,24.7-88.9c12.3-22.6,23.9-43.9,23.5-76.6
					c-0.5-45-24.6-90.8-71.6-136.3l1.2-1.3c47.4,45.8,71.7,92,72.2,137.5c0.4,33.1-11.9,55.6-23.7,77.4c-13,23.9-26.4,48.6-24.5,88
					c1.4,28.9,10.2,47.3,18,63.5c9.4,19.6,17.5,36.4,11.9,65.9c-3.9,20.5-11.8,33-20.2,46.1c-8.5,13.3-17.3,27.1-23.2,50.8
					c-7.6,30.9-6.5,64.1,3.3,98.6L2699.4,2906.9z"/>
				<path class="st21" d="M2746.8,2470.4v-1.4c0.3-11-1.3-39.1-23.2-63.2c-19.8-21.8-44.8-27.3-54.6-28.6l0.2-1.7
					c10,1.4,35.5,6.9,55.6,29.2c21.4,23.6,23.8,50.9,23.7,63c13.6-6.6,25.4-16.5,34.3-28.8c20.1-28.1,17.6-59.2,15.6-71.2l1.7-0.3
					c2.1,12.3,4.7,43.9-15.9,72.5c-9.3,12.9-21.8,23.2-36.2,29.9L2746.8,2470.4z"/>
				<path class="st21" d="M2723.8,2635.5l-0.9-0.4c-13.6-6.1-24.1-14.6-31.2-25.4c-8.3-12.5-9.4-24.1-10.6-36.3
					c-0.7-7.5-1.5-15.2-3.9-23.6c-6.2-21.2-21.8-40.5-46.4-57.2l1-1.4c24.9,16.9,40.7,36.5,47,58.1c2.5,8.5,3.3,16.3,4,23.9
					c1.2,12,2.3,23.4,10.4,35.6c6.8,10.2,16.8,18.4,29.6,24.3c14-43.4,38.7-82.5,72-113.7l1.2,1.3c-33.3,31.2-58,70.4-71.8,113.9
					L2723.8,2635.5z"/>
				<path class="st21" d="M2734.4,2731.4l-0.3-1.5c-1.4-7-7.9-30.9-30.9-45.7c-30-19.3-62.4-7-66-5.5l-0.7-1.6
					c3.7-1.5,36.9-14.2,67.6,5.6c22.1,14.3,29.3,36.8,31.3,45.3c11.7-10.8,21.9-23.1,30.3-36.6c13.7-22.4,22.2-47.5,24.9-73.6
					l1.7,0.2c-2.8,26.3-11.3,51.8-25.2,74.4c-8.7,14.1-19.4,26.9-31.7,38L2734.4,2731.4z"/>
			</g>
		</g>
	</g>
	<g>
		
			<linearGradient id="SVGID_25_" gradientUnits="userSpaceOnUse" x1="4868.2983" y1="2515.8115" x2="4725.6284" y2="2185.5615" gradientTransform="matrix(0.83 0.84 0.71 -0.7 -2608.0701 340.8899)">
			<stop  offset="0" style="stop-color:#AA80F9"/>
			<stop  offset="1" style="stop-color:#6165D7"/>
		</linearGradient>
		<path class="st27" d="M2754.1,2973.2c-14.5-7.6-40.9-24-55.7-52.7c-26.6-51.3-0.5-111.2,34.6-139.7c43.8-35.6,79.2-4.2,120.6-37.7
			c47-38.1,16.5-90.9,65.4-130.4c33.2-26.8,76.5-26.2,114.8-25.6c45.9,0.7,116.9,12.7,122.1,33.3c6.1,24.5-90.8,19.2-124.1,89.6
			c-25.2,53.3,12.4,94.5-20.2,149.6c-4.4,7.5-29,49.1-77.5,56.8c-63.4,10.1-108.5-47.3-147.2-30.5
			C2771,2892.8,2754.2,2912.7,2754.1,2973.2z"/>
		<g>
			<defs>
				<path id="SVGID_26_" d="M2754.1,2973.2c-14.5-7.6-40.9-24-55.7-52.7c-26.6-51.3-0.5-111.2,34.6-139.7
					c43.8-35.6,79.2-4.2,120.6-37.7c47-38.1,16.5-90.9,65.4-130.4c33.2-26.8,76.5-26.2,114.8-25.6c45.9,0.7,116.9,12.7,122.1,33.3
					c6.1,24.5-90.8,19.2-124.1,89.6c-25.2,53.3,12.4,94.5-20.2,149.6c-4.4,7.5-29,49.1-77.5,56.8c-63.4,10.1-108.5-47.3-147.2-30.5
					C2771,2892.8,2754.2,2912.7,2754.1,2973.2z"/>
			</defs>
			<clipPath id="SVGID_27_">
				<use xlink:href="#SVGID_26_"  style="overflow:visible;"/>
			</clipPath>
			<g class="st28">
				<path class="st29" d="M2748.9,2991.1c-29.6-65.8-34.2-113.1-13.6-140.8c16.4-22.1,41.9-23.8,71.3-25.9
					c29.8-2.1,63.6-4.5,94.3-29.6c28-23,35-49.2,42.3-76.9c6.7-25.2,13.6-51.2,37.7-74.2c38.7-36.8,103.6-47.7,193-32.4l-0.3,1.7
					c-88.8-15.2-153.3-4.5-191.5,31.9c-23.8,22.6-30.6,48.5-37.3,73.4c-7.1,26.8-14.4,54.5-42.9,77.8c-31.1,25.5-65.2,27.9-95.3,30
					c-29,2-54.1,3.8-70.1,25.2c-20.2,27.1-15.6,73.9,13.8,139L2748.9,2991.1z"/>
				<path class="st29" d="M2920.1,2781.1c-0.7-0.2-1.4-0.5-2.1-0.9c-11.9-6.2-11.7-28-11.5-49.1c0.3-24.6,5.4-48.9,15.2-71.6
					c17.6-40.1,46.1-66.3,66.9-81.2l1,1.4c-20.6,14.8-48.9,40.8-66.3,80.5c-9.6,22.4-14.7,46.5-15,70.9
					c-0.2,20.6-0.4,41.8,10.5,47.5c17.3,9,52.9-25.3,66.3-38.2l1-1c9-8.6,15-16.5,20.2-23.4c7.4-9.7,13.8-18.2,25.8-25.3
					c18.1-10.8,41-13.9,68.2-9.2l-0.3,1.7c-26.8-4.6-49.3-1.6-67,9c-11.7,7-18,15.3-25.3,24.9c-6.1,8.4-13,16.3-20.4,23.6l-1,1
					C2973.1,2754.3,2939,2787.2,2920.1,2781.1z"/>
				<path class="st29" d="M2889.9,2872.5c-18.7-6.1-40.7-22.1-65.6-48.1l-0.8-0.8l0.9-0.6c15.8-9.3,28.1-21.3,36.5-35.5
					c9.9-16.7,11.4-31.9,13.6-52.8l0.2-1.7c6.5-62.2,9.7-93.4,15.1-106.6c10.5-25.7,32.2-47.5,64.4-64.8l0.8,1.5
					c-31.9,17.1-53.3,38.7-63.6,64c-5.3,12.9-8.5,44.1-15,106.1l-0.2,1.7c-2.2,21.2-3.8,36.5-13.9,53.5
					c-8.4,14.2-20.6,26.2-36.1,35.6c37.4,38.8,67.8,55,90.3,48c12.6-3.9,19.4-13.8,27.4-25.2s17-24.5,33.9-34.7
					c21.8-13.2,49.3-17.2,81.8-11.8l-0.3,1.7c-32.1-5.3-59.2-1.4-80.6,11.6c-16.6,10-25.5,22.9-33.4,34.2
					c-8.1,11.7-15.2,21.8-28.3,25.9C2909,2876.2,2899.9,2875.8,2889.9,2872.5z"/>
				<path class="st16" d="M2862.6,2934.8c-44.3-14.3-68.6-46.6-68.8-46.9c-1.4-1.8-2.7-3.8-4.1-5.8c-7.4-10.6-15.7-22.6-30.6-26.6
					c-8.1-2.1-17-1.6-26.4,1.7l-1.1,0.4v-1.2c-0.1-11.2,2.5-20.8,7.8-28.6c6.7-9.9,16.7-13.9,25.5-17.4c9-3.6,16.8-6.7,19.5-15
					c6.5-19.7-3.7-37-5.8-40.3l1.5-0.9c2.2,3.4,12.7,21.4,6,41.8c-3,9.1-11.5,12.5-20.5,16.1c-8.6,3.4-18.3,7.3-24.7,16.8
					c-4.9,7.2-7.4,16.1-7.5,26.4c9.4-3,18.2-3.5,26.3-1.4c15.6,4.1,24.1,16.4,31.6,27.2c1.4,2,2.7,4,4.1,5.8
					c0.3,0.4,27.5,36.5,76.9,48.8c47.8,12,95.5-23.3,113.8-38.9l1.1,1.3c-18.5,15.9-66.8,51.5-115.3,39.3
					C2868.6,2936.7,2865.5,2935.8,2862.6,2934.8z"/>
			</g>
		</g>
	</g>
</g>
<g>
	
		<linearGradient id="SVGID_28_" gradientUnits="userSpaceOnUse" x1="1271.9855" y1="974.5698" x2="1259.9055" y2="736.0297" gradientTransform="matrix(1 0 0 -1 0 3710)">
		<stop  offset="0" style="stop-color:#FF9085"/>
		<stop  offset="1" style="stop-color:#FB6FBB"/>
	</linearGradient>
	<polygon class="st30" points="1259.3,2918.5 1822.7,2777.6 1850.9,2914.5 1335.1,3152.6 926.6,3051.7 680.3,2809.8 	"/>
	
		<linearGradient id="SVGID_29_" gradientUnits="userSpaceOnUse" x1="1271.9855" y1="974.5698" x2="1259.9055" y2="736.0297" gradientTransform="matrix(1 0 0 -1 0 3710)">
		<stop  offset="0" style="stop-color:#AA80F9"/>
		<stop  offset="1" style="stop-color:#6165D7"/>
	</linearGradient>
	<polygon class="st31" points="1259.3,2918.5 1822.7,2777.6 1850.9,2914.5 1335.1,3152.6 926.6,3051.7 680.3,2809.8 	"/>
	
		<linearGradient id="SVGID_30_" gradientUnits="userSpaceOnUse" x1="1241.54" y1="760.5814" x2="1947.5209" y2="760.5814" gradientTransform="matrix(1 0 0 -1 0 3710)">
		<stop  offset="0" style="stop-color:#AA80F9"/>
		<stop  offset="1" style="stop-color:#6165D7"/>
	</linearGradient>
	<path class="st32" d="M1241.5,3108c112-60,194.7-121.2,250.8-167.4c110.5-90.9,161.1-159.6,273-186.7c20-4.8,133.8-32.4,170.6,18.1
		c40.7,56-38.4,173-48,187.3c-142.9,211.5-506.7,201.6-620.8,194.8L1241.5,3108z"/>
	
		<linearGradient id="SVGID_31_" gradientUnits="userSpaceOnUse" x1="1241.54" y1="758.9116" x2="1947.48" y2="758.9116" gradientTransform="matrix(1 0 0 -1 0 3710)">
		<stop  offset="0" style="stop-color:#AA80F9"/>
		<stop  offset="1" style="stop-color:#6165D7"/>
	</linearGradient>
	<path class="st33" d="M1935.9,2772.1c-10.7-14.8-28.1-22.8-47.8-26.7c6.5,22.6,7.1,43.9-1,62.4c-22.3,50.7-88.4,35.1-134.9,94.6
		c-45.6,58.4-14,114.8-54.3,138.9c-46.2,27.6-103.5-36.9-153-6c-33.7,21-23.2,60.8-62.4,82.5c-27.1,15-53.7,7.9-84.5,4
		c-35.4-4.4-83.9-5.4-144.7,7.3c4.6,8.3,9.2,16.7,13.8,25c114.1,6.9,477.9,16.7,620.8-194.8
		C1897.5,2945.1,1976.6,2828,1935.9,2772.1z"/>
	
		<linearGradient id="SVGID_32_" gradientUnits="userSpaceOnUse" x1="1441.4506" y1="485.8904" x2="1305.5804" y2="654.9804" gradientTransform="matrix(1 0 0 -1 0 3710)">
		<stop  offset="0" style="stop-color:#311944"/>
		<stop  offset="1" style="stop-color:#6B3976"/>
	</linearGradient>
	<path class="st34" d="M1326.2,3139.6c0,0,20.5-14.7,50.3-4.7s77.1,18.1,77,32.7s-47.4,23.7-80.1,17.7
		C1342.2,3179.6,1317.6,3152.4,1326.2,3139.6z"/>
	
		<linearGradient id="SVGID_33_" gradientUnits="userSpaceOnUse" x1="1358.0293" y1="526.0494" x2="1170.8192" y2="761.5594" gradientTransform="matrix(1 0 0 -1 0 3710)">
		<stop  offset="0" style="stop-color:#FFC444"/>
		<stop  offset="1" style="stop-color:#F36F56"/>
	</linearGradient>
	<path class="st35" d="M1296.1,3114.8l54.8,17.6c0,0,8.9,14.8-3.1,24.2s-53.8-10.5-53.8-10.5L1296.1,3114.8z"/>
	
		<linearGradient id="SVGID_34_" gradientUnits="userSpaceOnUse" x1="955.0012" y1="768.4794" x2="799.4513" y2="444.9394" gradientTransform="matrix(1 0 0 -1 0 3710)">
		<stop  offset="0" style="stop-color:#AA80F9"/>
		<stop  offset="1" style="stop-color:#6165D7"/>
	</linearGradient>
	<path class="st36" d="M534.4,2862.1c-16.2,94.2,187.1,196.1,233.7,219.4c94.9,47.6,273.3,114.7,538.3,89c3.5-21.1,7-42.3,10.6-63.4
		c-50.2-17.2-99.3-37.6-147-61.1c-102.7-50.5-141.7-86.6-284.2-172.8c-157.7-95.3-203.7-107.5-250.7-95.7
		C594.9,2787.7,542,2818.4,534.4,2862.1z"/>
	
		<linearGradient id="SVGID_35_" gradientUnits="userSpaceOnUse" x1="905.335" y1="402.8085" x2="1232.8049" y2="1106.8883" gradientTransform="matrix(1 0 0 -1 0 3710)">
		<stop  offset="0" style="stop-color:#F36F56"/>
		<stop  offset="1" style="stop-color:#FFC444"/>
	</linearGradient>
	<path class="st37" d="M746.3,2683c-34.4-124.3,22.4-292,141.9-372.9c97.6-66,211.9-61.7,247.6-60.4c39.1,1.5,35,6.5,158,29.3
		c170.7,31.6,186.4,23.9,236.1,47.7c93.4,44.7,138.7,126,147.1,141.9c43.4,80.9,78.7,231.4-3.7,305
		c-46.8,41.8-112.5,41.7-149.5,37.7c-2.5-16.6-5-33.2-7.5-49.8c7.5-5.8,51.9-41.4,57.4-104.2c6.3-72.1-44.1-118.7-49.8-123.8
		c-56.5,108.9-70.1,235.1-38.1,353.6c-45.1,24.8-119.8,58.4-217,69.1c-73.3,8.1-164-7.4-221.9-52.7c-81.8-63.9-88.7-204.9-7.9-378.2
		c-29.6,19.8-72.4,55.7-90.2,112.4c-2.7,8.6-7.2,25.4-9.1,90.6C936.3,2845.4,781.9,2811.8,746.3,2683z"/>
	
		<linearGradient id="SVGID_36_" gradientUnits="userSpaceOnUse" x1="1184.6018" y1="1341.2589" x2="1210.1818" y2="927.4188" gradientTransform="matrix(1 0 0 -1 0 3710)">
		<stop  offset="0" style="stop-color:#F36F56"/>
		<stop  offset="1" style="stop-color:#FFC444"/>
	</linearGradient>
	<path class="st38" d="M1300.3,2769c-41.2,5-52.4,47.8-90.6,45.3c-83.1-5.4-149.8-149.4-114.7-228c22.9-51.3,82.6-60.2,78.5-93.6
		c-3.3-26.7-44.7-47.3-78.5-48.3c-52.7-1.6-87.4,44.3-99.6,60.4c-28.5,37.6-34.7,78.9-35.3,105.5c20.9-41.1,54.3-68.6,78.7-85
		c-80.8,173.3-73.9,311.1,7.9,375c58,45.3,148.7,64,221.9,55.9c65.4-7.3,129.1-25.7,188.3-54.3
		C1412.9,2829.9,1356.6,2762.1,1300.3,2769z"/>
	
		<linearGradient id="SVGID_37_" gradientUnits="userSpaceOnUse" x1="962.07" y1="799.995" x2="1445.0601" y2="799.995" gradientTransform="matrix(1 0 0 -1 0 3710)">
		<stop  offset="0" style="stop-color:#AA80F9"/>
		<stop  offset="1" style="stop-color:#6165D7"/>
	</linearGradient>
	<polygon class="st39" points="1443.8,2886.3 962.1,2879.1 1090.2,2940.9 1445.1,2917.7 	"/>
	
		<linearGradient id="SVGID_38_" gradientUnits="userSpaceOnUse" x1="704.3112" y1="459.4094" x2="1041.3011" y2="1183.9194" gradientTransform="matrix(1 0 0 -1 0 3710)">
		<stop  offset="0" style="stop-color:#F36F56"/>
		<stop  offset="1" style="stop-color:#FFC444"/>
	</linearGradient>
	<path class="st40" d="M769.6,2600.1c37.2-35.2,128.4-13,162.4,37.5c25,37.2,4.3,67.8,22.7,114.7c22.5,57.4,107.1,109.4,159.2,126.7
		c-8.1,17.6-5.8,22.1-13.9,39.6c-33.1-4.1-272.5-40.8-331-182.9C765.9,2728.4,729.7,2637.9,769.6,2600.1z"/>
	<path class="st16" d="M1312.8,2229.2c0,0-39,42.1-71.3,46.5s-79.1-4.2-87.1,0s40.6,21.5,79.2,32.1s108.7,31.7,128.1,27.1
		s-21.2-29.5-37.2-36.1s6.9-40.4,6.9-40.4L1312.8,2229.2z"/>
	<g>
		
			<linearGradient id="SVGID_39_" gradientUnits="userSpaceOnUse" x1="1161.2546" y1="1617.8193" x2="1090.7947" y2="1796.7594" gradientTransform="matrix(-0.79 -0.61 0.61 -0.79 1133.85 4282.0801)">
			<stop  offset="0" style="stop-color:#311944"/>
			<stop  offset="1" style="stop-color:#6B3976"/>
		</linearGradient>
		<path class="st41" d="M1370.7,2253.3c14.1-3.9,27-19.7,26.8-36.1c-0.1-14.1-10-23.7-16-29.5c-17.2-16.7-47-27.1-68.7-16.2
			c-12.8,6.5-18.7,36-20,41.1c-1.5,5.8,0.8,9.9,1.4,15.6c0.9,7.9,2.1,20.4,4,41.1c4.4-3.6,9.2-6.7,14.1-9.5
			c6.5-3.6,13.4-6.3,20.5-8.1C1352,2247.4,1357.3,2257,1370.7,2253.3z"/>
		<path class="st16" d="M1290.2,2247c0,0-3.3,29.9,22.6,47.3c23.2,15.6,64.6-31.5,58.6-52.8c-2-7.1-10.3-15.9-19.6-19.6
			c-5.5-2.2-8.5-1.5-17.4-5.3c-8.2-3.5-9.6-5.8-13-5.6c-4.3,0.2-10.3,4.1-17.1,21.9c-0.9-7.5-4.7-13.1-9.6-14.1
			c-1.7-0.3-3.5-0.1-5.2,0.6C1282,2222.5,1281.6,2233.8,1290.2,2247z"/>
		
			<linearGradient id="SVGID_40_" gradientUnits="userSpaceOnUse" x1="1139.4501" y1="1609.1276" x2="1068.9202" y2="1788.2676" gradientTransform="matrix(-0.79 -0.61 0.61 -0.79 1133.85 4282.0801)">
			<stop  offset="0" style="stop-color:#311944"/>
			<stop  offset="1" style="stop-color:#6B3976"/>
		</linearGradient>
		<path class="st42" d="M1322.6,2207.2c0.4,1.6-5.9,3.1-10.4,8.5c-8.9,10.6-7.9,32.2,2.5,42c6.2,5.8,11.1,3.2,23,10.5
			c5.8,3.6,11,8.1,15.4,13.3c-5.8,14.6-18.2,24.1-30.5,23.4c-13.2-0.7-21.4-12.8-24.9-17.8c-2.3-3.4-9.7-14.2-7.9-27.2
			c1.9-13.6,11.5-15.2,10.3-26.3c-0.6-5.6-3.6-10.1-2.8-19.4c0.2-2,0.5-4,1-5.9C1308.6,2206.6,1322,2204.8,1322.6,2207.2z"/>
		
			<linearGradient id="SVGID_41_" gradientUnits="userSpaceOnUse" x1="1325.7611" y1="1432.9508" x2="1343.2253" y2="1432.9508" gradientTransform="matrix(1 0 0 -1 0 3710)">
			<stop  offset="0" style="stop-color:#F36F56"/>
			<stop  offset="1" style="stop-color:#FFC444"/>
		</linearGradient>
		<path class="st43" d="M1341.6,2279.7c0,0-6.7-1.2-14.6-8c-0.4-0.3-0.9-0.6-1.1-0.4c-0.8,0.6,1.8,8.2,7.7,10.6
			c4.2,1.7,9.4,0.5,9.6-0.7C1343.3,2280.8,1342.5,2280.2,1341.6,2279.7z"/>
	</g>
	<g>
		
			<linearGradient id="SVGID_42_" gradientUnits="userSpaceOnUse" x1="1092.5353" y1="920.4872" x2="1694.2952" y2="920.4872" gradientTransform="matrix(1 0 0 -1 0 3710)">
			<stop  offset="0" style="stop-color:#444B8C"/>
			<stop  offset="1" style="stop-color:#26264F"/>
		</linearGradient>
		<path class="st44" d="M1126.6,2637l-34,309.2c-1.2,10.7,13.8,26.6,24.5,26.1l498.2-30.6c8.2-0.4,15-6.4,16.4-14.5l62.5-298.6
			c1.9-10.9-17.7-22.1-28.7-21.8l-522,14.7C1134.8,2621.7,1127.5,2628.3,1126.6,2637z"/>
		
			<linearGradient id="SVGID_43_" gradientUnits="userSpaceOnUse" x1="1103.8938" y1="914.8337" x2="1694.8351" y2="914.8337" gradientTransform="matrix(1 0 0 -1 0 3710)">
			<stop  offset="0" style="stop-color:#444B8C"/>
			<stop  offset="1" style="stop-color:#26264F"/>
		</linearGradient>
		<path class="st45" d="M1138,2646l-34,309.2c-1.1,9.6,5.9,18.2,15.5,19.3c0.9,0.1,1.8,0.1,2.7,0.1l504.5-23.9
			c8.2-0.4,15-6.4,16.4-14.5l51.5-300c1.6-9.5-4.7-18.5-14.3-20.2c-1.1-0.2-2.3-0.3-3.5-0.2l-522,14.7
			C1146.2,2630.7,1138.9,2637.3,1138,2646z"/>
	</g>
	
		<linearGradient id="SVGID_44_" gradientUnits="userSpaceOnUse" x1="1103.895" y1="908.0154" x2="1650.1499" y2="908.0154" gradientTransform="matrix(1 0 0 -1 0 3710)">
		<stop  offset="0" style="stop-color:#444B8C"/>
		<stop  offset="1" style="stop-color:#26264F"/>
	</linearGradient>
	<path class="st46" d="M1434.2,2878.2c-44-18.7-28.5-54.3-80.5-98.6c-68.6-58.5-138.6-33.1-163-78.5c-7.6-14.1-11.3-36.1,2-71.7
		l-37.8,1.1c-8.7,0.2-15.9,6.9-16.9,15.5l-34,309.2c-1,9.6,5.9,18.2,15.5,19.3c0.9,0.1,1.8,0.1,2.7,0.1l504.5-23.9
		c8.2-0.4,15-6.4,16.4-14.5l7.1-41.4c-17.1-9.7-35.7-16.6-54.9-20.6C1521.2,2859.2,1484.9,2899.7,1434.2,2878.2z"/>
	<path class="st16" d="M1084.8,2908c21.1,19.7,35.2,18,39.9,16.9c7.9-1.8,9-6.2,29.1-22c18-14.1,23.7-15.6,23.4-20.5
		c-0.4-9.2-21.3-17.2-38.4-18.1c-23.9-1.2-42,11.6-49.1,17.4L1084.8,2908z"/>
</g>
<path class="st16" d="M1782.1,2179c-25.7,0-46.6-20.9-46.5-46.7c0-12.3,4.9-24.1,13.5-32.8l253-254.5c18.1-18.3,47.7-18.3,65.9-0.2
	c18.3,18.1,18.3,47.7,0.2,65.9l-253,254.5C1806.4,2174.1,1794.5,2179,1782.1,2179z"/>
<path class="st16" d="M1921.5,2235.4c-139.7,0-253.4-113.7-253.4-253.4s113.7-253.4,253.4-253.4s253.4,113.7,253.4,253.4
	S2061.3,2235.4,1921.5,2235.4z M1921.5,1821.8c-88.3,0-160.2,71.9-160.2,160.2s71.8,160.2,160.2,160.2s160.2-71.9,160.2-160.2
	S2009.9,1821.8,1921.5,1821.8L1921.5,1821.8z"/>
</svg>
