<?xml version="1.0" encoding="utf-8"?>
<!-- Generator: Adobe Illustrator 24.0.2, SVG Export Plug-In . SVG Version: 6.00 Build 0)  -->
<svg version="1.1" id="Capa_1" xmlns="http://www.w3.org/2000/svg" xmlns:xlink="http://www.w3.org/1999/xlink" x="0px" y="0px"
	 viewBox="0 0 369.3 102.7" style="enable-background:new 0 0 369.3 102.7;" xml:space="preserve">
<style type="text/css">
	.st0{fill:#FFFFFF;}
	.st1{fill:#00DAC8;}
	.st2{fill:#2259C9;}
	.st3{font-family:'Calibri-Bold';}
	.st4{font-size:33px;}
	.st5{fill:url(#SVGID_1_);}
	.st6{fill:url(#SVGID_2_);}
	.st7{fill:url(#SVGID_3_);}
	.st8{fill:url(#SVGID_4_);}
	.st9{fill:url(#SVGID_5_);}
	.st10{fill:url(#SVGID_6_);}
	.st11{fill:url(#SVGID_7_);}
	.st12{fill:url(#SVGID_8_);}
	.st13{fill:url(#SVGID_9_);}
</style>
<path class="st0" d="M317.9,102.7H51.3C23.1,102.7,0,79.6,0,51.3v0C0,23.1,23.1,0,51.3,0h266.6c28.2,0,51.3,23.1,51.3,51.3v0
	C369.3,79.6,346.2,102.7,317.9,102.7z"/>
<path class="st1" d="M109,53.4c0,1-0.4,1.9-1.1,2.7L90.8,73.2C78,86,57.3,86,44.6,73.2s-12.8-33.4,0-46.2S78,14.3,90.8,27
	c0,0,0,0,0,0c1.4,1.5,1.3,3.9-0.2,5.3c-1.4,1.3-3.7,1.3-5.1,0c-9.8-9.8-25.8-9.8-35.6,0s-9.8,25.8,0,35.6s25.8,9.8,35.6,0
	c0,0,0,0,0,0l17.2-17.1c1.5-1.5,3.8-1.5,5.3,0C108.7,51.5,109,52.4,109,53.4L109,53.4z"/>
<path class="st2" d="M82.6,39c0,2.1-1.7,3.7-3.8,3.7c-1,0-1.9-0.4-2.6-1.1c-4.7-4.7-12.3-4.7-17,0s-4.7,12.3,0,17
	c4.7,4.7,12.3,4.7,16.9,0c1.5-1.4,3.9-1.3,5.3,0.2c1.3,1.4,1.3,3.7,0,5.1c-7.6,7.6-20,7.6-27.6,0s-7.6-20,0-27.6s20-7.6,27.6,0
	c0,0,0,0,0,0C82.2,37,82.6,38,82.6,39z"/>
<path class="st2" d="M159.8,50.1c0,18-14.6,32.7-32.7,32.7c-8.7,0-17-3.4-23.1-9.6c-1.4-1.5-1.3-3.9,0.2-5.3c1.4-1.3,3.7-1.3,5.1,0
	c9.8,9.8,25.8,9.8,35.6,0c9.8-9.8,9.8-25.8,0-35.6c-9.8-9.8-25.8-9.8-35.6,0c0,0,0,0,0,0L92.1,49.5c-1.5,1.4-3.9,1.3-5.3-0.2
	c-1.3-1.4-1.3-3.7,0-5.1L104,27c12.8-12.8,33.4-12.7,46.2,0C156.3,33.2,159.8,41.5,159.8,50.1z"/>
<path class="st1" d="M146.6,50.1c0,10.8-8.7,19.5-19.5,19.5c-5.2,0-10.1-2.1-13.8-5.7c-1.4-1.5-1.3-3.9,0.2-5.3
	c1.4-1.3,3.7-1.3,5.1,0c4.7,4.7,12.3,4.7,17,0c4.7-4.7,4.7-12.3,0-17c-4.7-4.7-12.3-4.7-17,0c0,0,0,0,0,0c-1.5,1.5-3.8,1.5-5.3,0
	s-1.5-3.8,0-5.3l0,0c7.6-7.6,20-7.6,27.6,0C144.6,40,146.6,45,146.6,50.1L146.6,50.1z"/>
<g>
	<text transform="matrix(1 0 0 1 174.6351 61.3074)" class="st3 st4">TORNAISSE</text>
	<g>
		<linearGradient id="SVGID_1_" gradientUnits="userSpaceOnUse" x1="174.8286" y1="50.8819" x2="328.2266" y2="50.8819">
			<stop  offset="0" style="stop-color:#00C2C8"/>
			<stop  offset="1" style="stop-color:#2259C9"/>
		</linearGradient>
		<path class="st5" d="M190.8,42.2c0,0.3,0,0.6,0,0.8c0,0.2-0.1,0.4-0.1,0.5c-0.1,0.1-0.1,0.2-0.2,0.3c-0.1,0.1-0.2,0.1-0.3,0.1
			h-5.2v16.8c0,0.1,0,0.2-0.1,0.3c-0.1,0.1-0.2,0.2-0.3,0.2c-0.2,0.1-0.4,0.1-0.7,0.1c-0.3,0-0.6,0-1,0c-0.4,0-0.8,0-1,0
			c-0.3,0-0.5-0.1-0.7-0.1c-0.2-0.1-0.3-0.1-0.3-0.2c-0.1-0.1-0.1-0.2-0.1-0.3V43.9h-5.2c-0.1,0-0.2,0-0.3-0.1s-0.1-0.2-0.2-0.3
			c-0.1-0.1-0.1-0.3-0.1-0.5c0-0.2,0-0.5,0-0.8c0-0.3,0-0.6,0-0.8c0-0.2,0.1-0.4,0.1-0.5s0.1-0.2,0.2-0.3s0.2-0.1,0.3-0.1h14.7
			c0.1,0,0.2,0,0.3,0.1c0.1,0.1,0.1,0.2,0.2,0.3s0.1,0.3,0.1,0.5C190.8,41.6,190.8,41.9,190.8,42.2z"/>
		<linearGradient id="SVGID_2_" gradientUnits="userSpaceOnUse" x1="174.8286" y1="50.8819" x2="328.2266" y2="50.8819">
			<stop  offset="0" style="stop-color:#00C2C8"/>
			<stop  offset="1" style="stop-color:#2259C9"/>
		</linearGradient>
		<path class="st6" d="M212,50.6c0,1.7-0.2,3.3-0.6,4.6s-1.1,2.5-1.9,3.5c-0.8,1-1.9,1.7-3.2,2.2c-1.3,0.5-2.7,0.7-4.3,0.7
			c-1.6,0-3-0.2-4.2-0.6c-1.2-0.4-2.2-1.1-3-1.9s-1.4-2-1.8-3.3c-0.4-1.3-0.6-2.9-0.6-4.8c0-1.7,0.2-3.2,0.6-4.6
			c0.4-1.3,1.1-2.5,1.9-3.4c0.8-0.9,1.9-1.7,3.1-2.2c1.3-0.5,2.7-0.8,4.4-0.8c1.6,0,3,0.2,4.2,0.6c1.2,0.4,2.2,1.1,3,1.9
			c0.8,0.9,1.4,2,1.8,3.3C211.8,47.3,212,48.8,212,50.6z M207.6,50.9c0-1.1-0.1-2.1-0.3-3c-0.2-0.9-0.5-1.7-0.9-2.3
			c-0.4-0.6-1-1.1-1.7-1.5s-1.5-0.5-2.6-0.5c-1,0-1.9,0.2-2.6,0.6s-1.3,0.9-1.7,1.6s-0.7,1.4-0.9,2.3c-0.2,0.9-0.3,1.8-0.3,2.8
			c0,1.1,0.1,2.2,0.3,3.1c0.2,0.9,0.5,1.7,0.9,2.3s1,1.1,1.6,1.5c0.7,0.3,1.6,0.5,2.6,0.5s1.9-0.2,2.6-0.6c0.7-0.4,1.3-0.9,1.7-1.6
			s0.7-1.4,0.9-2.3C207.5,52.8,207.6,51.9,207.6,50.9z"/>
		<linearGradient id="SVGID_3_" gradientUnits="userSpaceOnUse" x1="174.8286" y1="50.8819" x2="328.2266" y2="50.8819">
			<stop  offset="0" style="stop-color:#00C2C8"/>
			<stop  offset="1" style="stop-color:#2259C9"/>
		</linearGradient>
		<path class="st7" d="M231,60.8c0,0.1,0,0.2-0.1,0.3c0,0.1-0.1,0.1-0.3,0.2s-0.4,0.1-0.7,0.1s-0.7,0-1.3,0c-0.5,0-0.8,0-1.1,0
			s-0.5-0.1-0.6-0.1c-0.2-0.1-0.3-0.1-0.3-0.2c-0.1-0.1-0.1-0.2-0.2-0.3l-1.9-4.7c-0.2-0.5-0.4-1-0.7-1.4s-0.5-0.7-0.7-1
			c-0.3-0.3-0.6-0.5-0.9-0.6s-0.7-0.2-1.2-0.2h-1.3v7.9c0,0.1,0,0.2-0.1,0.3c-0.1,0.1-0.2,0.2-0.3,0.2s-0.4,0.1-0.6,0.1s-0.6,0-1,0
			c-0.4,0-0.7,0-1,0c-0.3,0-0.5-0.1-0.7-0.1s-0.3-0.1-0.3-0.2s-0.1-0.2-0.1-0.3V41.8c0-0.5,0.1-0.8,0.4-1c0.2-0.2,0.5-0.3,0.9-0.3
			h5.4c0.5,0,1,0,1.4,0s0.7,0,1,0.1c0.8,0.1,1.6,0.3,2.3,0.6c0.7,0.3,1.2,0.7,1.7,1.1c0.5,0.5,0.8,1,1.1,1.7
			c0.2,0.6,0.4,1.4,0.4,2.2c0,0.7-0.1,1.3-0.3,1.9c-0.2,0.6-0.4,1.1-0.8,1.5s-0.8,0.8-1.3,1.2s-1.1,0.6-1.7,0.8
			c0.3,0.2,0.6,0.3,0.9,0.5c0.3,0.2,0.5,0.5,0.8,0.8c0.2,0.3,0.5,0.7,0.7,1c0.2,0.4,0.4,0.8,0.6,1.3l1.8,4.1
			c0.2,0.4,0.3,0.7,0.3,0.9C231,60.5,231,60.7,231,60.8z M225.6,46.6c0-0.7-0.2-1.3-0.5-1.7s-0.8-0.8-1.5-1
			c-0.2-0.1-0.5-0.1-0.7-0.1c-0.3,0-0.7,0-1.1,0h-1.9v5.9h2.2c0.6,0,1.1-0.1,1.6-0.2c0.5-0.1,0.8-0.3,1.1-0.6
			c0.3-0.3,0.5-0.6,0.7-0.9S225.6,47.1,225.6,46.6z"/>
		<linearGradient id="SVGID_4_" gradientUnits="userSpaceOnUse" x1="174.8286" y1="50.8819" x2="328.2266" y2="50.8819">
			<stop  offset="0" style="stop-color:#00C2C8"/>
			<stop  offset="1" style="stop-color:#2259C9"/>
		</linearGradient>
		<path class="st8" d="M251.3,59.8c0,0.2,0,0.5-0.1,0.7s-0.2,0.4-0.3,0.5c-0.1,0.1-0.3,0.2-0.5,0.3c-0.2,0.1-0.4,0.1-0.6,0.1h-1.8
			c-0.4,0-0.7,0-1-0.1c-0.3-0.1-0.5-0.2-0.8-0.4c-0.2-0.2-0.5-0.5-0.7-0.8c-0.2-0.3-0.5-0.8-0.7-1.3l-5.2-9.7
			c-0.3-0.6-0.6-1.2-0.9-1.9c-0.3-0.7-0.6-1.3-0.8-2h0c0,0.8,0.1,1.5,0.1,2.3c0,0.8,0,1.6,0,2.4v10.9c0,0.1,0,0.2-0.1,0.3
			c-0.1,0.1-0.2,0.2-0.3,0.2c-0.1,0.1-0.3,0.1-0.6,0.1s-0.6,0-1,0c-0.4,0-0.7,0-0.9,0s-0.4-0.1-0.6-0.1c-0.1-0.1-0.2-0.1-0.3-0.2
			s-0.1-0.2-0.1-0.3V42c0-0.5,0.1-0.9,0.4-1.1c0.3-0.3,0.7-0.4,1.1-0.4h2.3c0.4,0,0.8,0,1,0.1c0.3,0.1,0.5,0.2,0.8,0.3
			c0.2,0.2,0.4,0.4,0.6,0.7s0.4,0.6,0.6,1.1l4.1,7.6c0.2,0.5,0.5,0.9,0.7,1.4c0.2,0.4,0.5,0.9,0.7,1.3c0.2,0.4,0.4,0.9,0.6,1.3
			c0.2,0.4,0.4,0.9,0.6,1.3h0c0-0.8-0.1-1.5-0.1-2.4c0-0.8,0-1.6,0-2.3v-9.8c0-0.1,0-0.2,0.1-0.3s0.2-0.2,0.3-0.2s0.3-0.1,0.6-0.1
			c0.2,0,0.6,0,1,0c0.4,0,0.7,0,0.9,0c0.2,0,0.4,0.1,0.6,0.1c0.1,0.1,0.2,0.1,0.3,0.2c0.1,0.1,0.1,0.2,0.1,0.3V59.8z"/>
		<linearGradient id="SVGID_5_" gradientUnits="userSpaceOnUse" x1="174.8286" y1="50.8819" x2="328.2266" y2="50.8819">
			<stop  offset="0" style="stop-color:#00C2C8"/>
			<stop  offset="1" style="stop-color:#2259C9"/>
		</linearGradient>
		<path class="st9" d="M273,59.7c0.1,0.4,0.2,0.7,0.2,0.9s0,0.4-0.1,0.5c-0.1,0.1-0.3,0.2-0.6,0.2c-0.3,0-0.7,0-1.2,0
			c-0.5,0-1,0-1.3,0c-0.3,0-0.5,0-0.7-0.1c-0.2,0-0.3-0.1-0.3-0.2s-0.1-0.2-0.2-0.3l-1.4-4.2h-7.8l-1.3,4.1c0,0.2-0.1,0.3-0.2,0.4
			c-0.1,0.1-0.2,0.2-0.3,0.2c-0.2,0.1-0.4,0.1-0.7,0.1c-0.3,0-0.7,0-1.1,0c-0.5,0-0.9,0-1.2,0s-0.5-0.1-0.6-0.2
			c-0.1-0.1-0.1-0.3-0.1-0.5s0.1-0.5,0.2-0.9l6.4-18.5c0.1-0.2,0.1-0.3,0.2-0.4c0.1-0.1,0.2-0.2,0.4-0.3c0.2-0.1,0.4-0.1,0.8-0.1
			c0.3,0,0.8,0,1.3,0c0.6,0,1.1,0,1.5,0c0.4,0,0.7,0.1,0.9,0.1c0.2,0.1,0.4,0.1,0.5,0.3c0.1,0.1,0.2,0.3,0.2,0.5L273,59.7z
			 M263.4,44.4L263.4,44.4l-3,8.9h5.9L263.4,44.4z"/>
		<linearGradient id="SVGID_6_" gradientUnits="userSpaceOnUse" x1="174.8286" y1="50.8819" x2="328.2266" y2="50.8819">
			<stop  offset="0" style="stop-color:#00C2C8"/>
			<stop  offset="1" style="stop-color:#2259C9"/>
		</linearGradient>
		<path class="st10" d="M280.1,60.7c0,0.1,0,0.2-0.1,0.3c-0.1,0.1-0.2,0.2-0.3,0.2c-0.2,0.1-0.4,0.1-0.6,0.1s-0.6,0-1,0
			c-0.4,0-0.7,0-1,0c-0.3,0-0.5-0.1-0.7-0.1c-0.2-0.1-0.3-0.1-0.3-0.2c-0.1-0.1-0.1-0.2-0.1-0.3V41c0-0.1,0-0.2,0.1-0.3
			c0.1-0.1,0.2-0.2,0.4-0.2c0.2-0.1,0.4-0.1,0.7-0.1s0.6,0,1,0c0.4,0,0.8,0,1,0s0.5,0.1,0.6,0.1c0.2,0.1,0.3,0.1,0.3,0.2
			c0.1,0.1,0.1,0.2,0.1,0.3V60.7z"/>
		<linearGradient id="SVGID_7_" gradientUnits="userSpaceOnUse" x1="174.8286" y1="50.8819" x2="328.2266" y2="50.8819">
			<stop  offset="0" style="stop-color:#00C2C8"/>
			<stop  offset="1" style="stop-color:#2259C9"/>
		</linearGradient>
		<path class="st11" d="M297,55.1c0,1.1-0.2,2.1-0.6,2.9s-1,1.5-1.7,2.1c-0.7,0.6-1.5,1-2.4,1.2c-0.9,0.3-1.9,0.4-3,0.4
			c-0.7,0-1.4-0.1-2-0.2c-0.6-0.1-1.2-0.3-1.6-0.4c-0.5-0.2-0.9-0.3-1.2-0.5c-0.3-0.2-0.5-0.3-0.7-0.5c-0.1-0.1-0.2-0.3-0.3-0.6
			c-0.1-0.3-0.1-0.6-0.1-1.1c0-0.3,0-0.6,0-0.8s0.1-0.4,0.1-0.5c0-0.1,0.1-0.2,0.2-0.3c0.1-0.1,0.2-0.1,0.3-0.1
			c0.2,0,0.4,0.1,0.6,0.3c0.3,0.2,0.6,0.4,1.1,0.6s0.9,0.4,1.5,0.6c0.6,0.2,1.3,0.3,2.1,0.3c0.5,0,1-0.1,1.4-0.2
			c0.4-0.1,0.8-0.3,1-0.5c0.3-0.2,0.5-0.5,0.7-0.8s0.2-0.7,0.2-1.1c0-0.5-0.1-0.9-0.4-1.2c-0.3-0.3-0.6-0.6-1-0.9
			c-0.4-0.3-0.9-0.5-1.4-0.7c-0.5-0.2-1.1-0.5-1.6-0.7s-1.1-0.6-1.6-0.9c-0.5-0.3-1-0.7-1.4-1.2c-0.4-0.5-0.8-1-1-1.6
			s-0.4-1.4-0.4-2.2c0-1,0.2-1.9,0.6-2.6c0.4-0.8,0.9-1.4,1.5-1.9c0.6-0.5,1.4-0.9,2.2-1.1c0.9-0.2,1.8-0.4,2.7-0.4
			c0.5,0,1,0,1.5,0.1c0.5,0.1,1,0.2,1.4,0.3s0.8,0.3,1.1,0.4s0.6,0.3,0.7,0.4s0.2,0.2,0.2,0.3c0,0.1,0.1,0.2,0.1,0.3
			c0,0.1,0,0.3,0.1,0.5s0,0.4,0,0.7c0,0.3,0,0.6,0,0.8c0,0.2,0,0.4-0.1,0.5c0,0.1-0.1,0.2-0.2,0.3c-0.1,0.1-0.2,0.1-0.3,0.1
			c-0.1,0-0.3-0.1-0.6-0.2s-0.6-0.3-1-0.5c-0.4-0.2-0.8-0.3-1.3-0.5c-0.5-0.1-1-0.2-1.6-0.2c-0.5,0-0.9,0.1-1.2,0.2
			c-0.3,0.1-0.6,0.3-0.9,0.5c-0.2,0.2-0.4,0.4-0.5,0.7c-0.1,0.3-0.2,0.6-0.2,0.9c0,0.5,0.1,0.9,0.4,1.2c0.3,0.3,0.6,0.6,1,0.9
			c0.4,0.3,0.9,0.5,1.4,0.7s1.1,0.5,1.6,0.7s1.1,0.6,1.6,0.9s1,0.7,1.4,1.2c0.4,0.5,0.8,1,1,1.6C296.9,53.5,297,54.2,297,55.1z"/>
		<linearGradient id="SVGID_8_" gradientUnits="userSpaceOnUse" x1="174.8286" y1="50.8819" x2="328.2266" y2="50.8819">
			<stop  offset="0" style="stop-color:#00C2C8"/>
			<stop  offset="1" style="stop-color:#2259C9"/>
		</linearGradient>
		<path class="st12" d="M312.6,55.1c0,1.1-0.2,2.1-0.6,2.9s-1,1.5-1.7,2.1c-0.7,0.6-1.5,1-2.4,1.2c-0.9,0.3-1.9,0.4-3,0.4
			c-0.7,0-1.4-0.1-2-0.2c-0.6-0.1-1.2-0.3-1.6-0.4c-0.5-0.2-0.9-0.3-1.2-0.5c-0.3-0.2-0.5-0.3-0.7-0.5c-0.1-0.1-0.2-0.3-0.3-0.6
			c-0.1-0.3-0.1-0.6-0.1-1.1c0-0.3,0-0.6,0-0.8s0.1-0.4,0.1-0.5c0-0.1,0.1-0.2,0.2-0.3c0.1-0.1,0.2-0.1,0.3-0.1
			c0.2,0,0.4,0.1,0.6,0.3c0.3,0.2,0.6,0.4,1.1,0.6s0.9,0.4,1.5,0.6c0.6,0.2,1.3,0.3,2.1,0.3c0.5,0,1-0.1,1.4-0.2
			c0.4-0.1,0.8-0.3,1-0.5c0.3-0.2,0.5-0.5,0.7-0.8s0.2-0.7,0.2-1.1c0-0.5-0.1-0.9-0.4-1.2c-0.3-0.3-0.6-0.6-1-0.9
			c-0.4-0.3-0.9-0.5-1.4-0.7c-0.5-0.2-1.1-0.5-1.6-0.7s-1.1-0.6-1.6-0.9c-0.5-0.3-1-0.7-1.4-1.2c-0.4-0.5-0.8-1-1-1.6
			s-0.4-1.4-0.4-2.2c0-1,0.2-1.9,0.6-2.6c0.4-0.8,0.9-1.4,1.5-1.9c0.6-0.5,1.4-0.9,2.2-1.1c0.9-0.2,1.8-0.4,2.7-0.4
			c0.5,0,1,0,1.5,0.1c0.5,0.1,1,0.2,1.4,0.3s0.8,0.3,1.1,0.4s0.6,0.3,0.7,0.4s0.2,0.2,0.2,0.3c0,0.1,0.1,0.2,0.1,0.3
			c0,0.1,0,0.3,0.1,0.5s0,0.4,0,0.7c0,0.3,0,0.6,0,0.8c0,0.2,0,0.4-0.1,0.5c0,0.1-0.1,0.2-0.2,0.3c-0.1,0.1-0.2,0.1-0.3,0.1
			c-0.1,0-0.3-0.1-0.6-0.2s-0.6-0.3-1-0.5c-0.4-0.2-0.8-0.3-1.3-0.5c-0.5-0.1-1-0.2-1.6-0.2c-0.5,0-0.9,0.1-1.2,0.2
			c-0.3,0.1-0.6,0.3-0.9,0.5c-0.2,0.2-0.4,0.4-0.5,0.7c-0.1,0.3-0.2,0.6-0.2,0.9c0,0.5,0.1,0.9,0.4,1.2c0.3,0.3,0.6,0.6,1,0.9
			c0.4,0.3,0.9,0.5,1.4,0.7s1.1,0.5,1.6,0.7s1.1,0.6,1.6,0.9s1,0.7,1.4,1.2c0.4,0.5,0.8,1,1,1.6C312.5,53.5,312.6,54.2,312.6,55.1z"
			/>
		<linearGradient id="SVGID_9_" gradientUnits="userSpaceOnUse" x1="174.8286" y1="50.8819" x2="328.2266" y2="50.8819">
			<stop  offset="0" style="stop-color:#00C2C8"/>
			<stop  offset="1" style="stop-color:#2259C9"/>
		</linearGradient>
		<path class="st13" d="M328.2,59.6c0,0.3,0,0.6,0,0.8c0,0.2-0.1,0.4-0.1,0.5s-0.1,0.2-0.2,0.3c-0.1,0.1-0.2,0.1-0.3,0.1h-10.5
			c-0.4,0-0.7-0.1-0.9-0.3c-0.2-0.2-0.4-0.6-0.4-1V41.8c0-0.5,0.1-0.8,0.4-1c0.2-0.2,0.5-0.3,0.9-0.3h10.4c0.1,0,0.2,0,0.3,0.1
			s0.1,0.1,0.2,0.3c0.1,0.1,0.1,0.3,0.1,0.5c0,0.2,0,0.5,0,0.8c0,0.3,0,0.6,0,0.8c0,0.2-0.1,0.4-0.1,0.5s-0.1,0.2-0.2,0.3
			c-0.1,0.1-0.2,0.1-0.3,0.1h-7.4v5.1h6.3c0.1,0,0.2,0,0.3,0.1c0.1,0.1,0.1,0.2,0.2,0.3c0.1,0.1,0.1,0.3,0.1,0.5c0,0.2,0,0.5,0,0.8
			c0,0.3,0,0.6,0,0.8c0,0.2-0.1,0.4-0.1,0.5c-0.1,0.1-0.1,0.2-0.2,0.3c-0.1,0.1-0.2,0.1-0.3,0.1h-6.3V58h7.5c0.1,0,0.2,0,0.3,0.1
			c0.1,0.1,0.1,0.2,0.2,0.3s0.1,0.3,0.1,0.5C328.2,59.1,328.2,59.3,328.2,59.6z"/>
	</g>
</g>
</svg>
